Coordinates
version=1
nRows=34
nColumns=33
inDegrees=yes

Units are S.I. units (second, meters, Newtons, ...)
Angles are in degrees.

endheader
time	ground_thorax_rot_x	ground_thorax_rot_y	ground_thorax_rot_z	ground_thorax_tx	ground_thorax_ty	ground_thorax_tz	clav_prot_r	clav_elev_r	scapula_abduction_r	scapula_elevation_r	scapula_upward_rot_r	scapula_winging_r	shoulder_elv_r	plane_of_elev_r	axial_rot_r	elbow_flexion_r	pro_sup_r	wrist_flex_r	wrist_dev_r	clav_prot_l	clav_elev_l	scapula_abduction_l	scapula_elevation_l	scapula_upward_rot_l	scapula_winging_l	shoulder_elv_l	plane_of_elev_l	axial_rot_l	elbow_flexion_l	pro_sup_l	wrist_flex_l	wrist_dev_l	
8.2300	36.499839	17.411792	20.703887	-261.329751	826.828831	9.068073	11.844072	36.839444	35.549908	45.000000	-42.198500	2069.619667	-2271.533037	146.827446	-124.089288	2180.477662	100.968331	11.706883	3.425210	8.668998	-45.000000	-35.693252	45.000000	-45.000000	-2776.946618	437.133840	20.000410	-59.200728	736.139411	77.984264	-1.285480	-14.253402	
8.2400	36.475083	17.421708	20.713016	-261.252579	826.703538	9.101038	11.863430	36.792419	35.567161	45.000000	-42.203950	2069.588342	-2271.565587	146.801273	-124.144940	2180.468174	100.994334	11.687299	3.419129	8.682392	-45.000000	-35.698106	45.000000	-45.000000	-2776.908118	437.156700	20.006023	-59.268509	736.214463	78.019181	-1.294003	-14.229441	
8.2500	36.436697	17.460655	20.761289	-261.159974	826.580222	9.133873	11.887425	36.829961	35.560565	45.000000	-42.259120	2069.625605	-2271.526064	146.811503	-124.156443	2180.490827	101.020014	11.656422	3.382123	8.663480	-45.000000	-35.721475	45.000000	-45.000000	-2776.893016	437.161448	19.982359	-59.301050	736.223699	78.064213	-1.284008	-14.155266	
8.2600	36.405827	17.488881	20.792632	-261.031927	826.464029	9.166588	11.903411	36.844177	35.563617	45.000000	-42.276807	2069.636720	-2271.512805	146.810510	-124.169665	2180.509519	101.056324	11.642889	3.357821	8.661902	-45.000000	-35.736305	45.000000	-45.000000	-2776.881252	437.166924	19.972237	-59.317446	736.248304	78.119053	-1.282260	-14.114913	
8.2700	36.381194	17.510943	20.813259	-260.870203	826.354738	9.198232	11.912724	36.846418	35.574709	45.000000	-42.275307	2069.639155	-2271.508460	146.807646	-124.177671	2180.525932	101.104762	11.635899	3.338501	8.668728	-45.000000	-35.745231	45.000000	-45.000000	-2776.882420	437.162958	19.970747	-59.320599	736.256769	78.185669	-1.278726	-14.087846	
8.2800	36.346392	17.547142	20.847558	-260.673843	826.252817	9.227843	11.922443	36.880547	35.575212	45.000000	-42.274813	2069.659490	-2271.492803	146.818108	-124.169572	2180.547711	101.166436	11.633142	3.314442	8.665810	-45.000000	-35.764666	45.000000	-45.000000	-2776.892256	437.162963	19.961951	-59.293964	736.252717	78.263568	-1.273906	-14.056008	
8.2900	36.317135	17.571164	20.866567	-260.447333	826.157992	9.254172	11.925097	36.892958	35.587540	45.000000	-42.253793	2069.665966	-2271.491616	146.823184	-124.165108	2180.562615	101.246345	11.632093	3.297697	8.671953	-45.000000	-35.776131	45.000000	-45.000000	-2776.910003	437.159556	19.967303	-59.262384	736.237719	78.352563	-1.267779	-14.035580	
8.3000	36.277551	17.604872	20.893234	-260.196551	826.069636	9.276160	11.932578	36.927290	35.587750	45.000000	-42.236415	2069.682199	-2271.480625	146.833540	-124.154927	2180.589039	101.343048	11.624244	3.273891	8.665731	-45.000000	-35.804859	45.000000	-45.000000	-2776.928475	437.164526	19.966488	-59.211726	736.229728	78.448967	-1.263041	-14.004196	
8.3100	36.250473	17.612442	20.893951	-259.925519	825.988038	9.293067	11.929458	36.920127	35.609411	45.000000	-42.195474	2069.674769	-2271.492132	146.830884	-124.160951	2180.610550	101.460284	11.614782	3.260013	8.678445	-45.000000	-35.813395	45.000000	-45.000000	-2776.945673	437.164154	19.989258	-59.167122	736.229127	78.553553	-1.260930	-13.988548	
8.3200	36.217078	17.627625	20.903280	-259.636285	825.914060	9.304665	11.931048	36.932323	35.617870	45.000000	-42.158032	2069.676954	-2271.493337	146.828034	-124.166980	2180.640865	101.595862	11.600775	3.240700	8.682301	-45.000000	-35.830486	45.000000	-45.000000	-2776.960424	437.169129	20.007379	-59.104166	736.240355	78.666061	-1.262295	-13.964081	
8.3300	36.199031	17.627382	20.898714	-259.329179	825.849767	9.311060	11.921234	36.912253	35.651281	45.000000	-42.100504	2069.660519	-2271.510155	146.823876	-124.192737	2180.663217	101.751764	11.584362	3.230436	8.702874	-45.000000	-35.826072	45.000000	-45.000000	-2776.978586	437.159666	20.041175	-59.042304	736.239603	78.790980	-1.262869	-13.950198	
8.3400	36.177150	17.642276	20.903202	-259.003108	825.798127	9.312657	11.921300	36.910985	35.662986	45.000000	-42.042634	2069.649147	-2271.516770	146.811456	-124.224739	2180.688791	101.925130	11.564108	3.216312	8.711793	-45.000000	-35.836046	45.000000	-45.000000	-2776.998194	437.154867	20.066878	-58.961611	736.249524	78.927056	-1.267800	-13.929227	
8.3500	36.166304	17.649275	20.899242	-258.655579	825.762547	9.310079	11.911852	36.897185	35.689784	45.000000	-41.974010	2069.635233	-2271.527288	146.801917	-124.271995	2180.709550	102.115682	11.544752	3.206396	8.731966	-45.000000	-35.831918	45.000000	-45.000000	-2777.020513	437.142979	20.104643	-58.873226	736.254673	79.078546	-1.274440	-13.913698	
8.3600	36.148863	17.673817	20.903828	-258.283316	825.746507	9.304061	11.912411	36.913880	35.687673	45.000000	-41.908826	2069.636158	-2271.518040	146.783329	-124.322589	2180.735278	102.321545	11.526142	3.189664	8.737119	-45.000000	-35.850623	45.000000	-45.000000	-2777.043525	437.144848	20.133567	-58.760203	736.280078	79.245244	-1.288322	-13.890462	
8.3700	36.142145	17.692585	20.894166	-257.882455	825.752954	9.295406	11.898299	36.915857	35.701495	45.000000	-41.828813	2069.633671	-2271.506920	146.774451	-124.392204	2180.770319	102.540393	11.506701	3.172205	8.755136	-45.000000	-35.875392	45.000000	-45.000000	-2777.064429	437.144009	20.171494	-58.637039	736.322998	79.428570	-1.308869	-13.874439	
8.3800	36.132251	17.720834	20.881551	-257.448464	825.784087	9.284848	11.888182	36.936104	35.686372	45.000000	-41.745011	2069.640066	-2271.476697	146.746298	-124.469745	2180.814649	102.771251	11.488834	3.147459	8.766183	-45.000000	-35.924426	45.000000	-45.000000	-2777.085263	437.156340	20.206426	-58.492176	736.396452	79.628835	-1.338452	-13.857458	
8.3900	36.129790	17.742844	20.857412	-256.976559	825.841084	9.273037	11.854656	36.938181	35.681816	45.000000	-41.641771	2069.653085	-2271.444358	146.728882	-124.566702	2180.862551	103.013782	11.471777	3.122230	8.796408	-45.000000	-35.973767	45.000000	-45.000000	-2777.105052	437.163515	20.254991	-58.336955	736.475918	79.849747	-1.371548	-13.848144	
8.4000	36.123300	17.776908	20.840852	-256.461575	825.924202	9.260459	11.817691	36.957233	35.664269	45.000000	-41.532829	2069.676445	-2271.403021	146.705561	-124.672267	2180.902942	103.270821	11.458888	3.094380	8.823823	-45.000000	-36.030554	45.000000	-45.000000	-2777.130645	437.177419	20.302674	-58.160965	736.552026	80.095875	-1.405700	-13.837129	
8.4100	36.120480	17.815679	20.824676	-255.898542	826.032957	9.247450	11.762708	36.960659	35.667199	45.000000	-41.407037	2069.699282	-2271.369315	146.703057	-124.796282	2180.942616	103.541772	11.445563	3.066841	8.865019	-45.000000	-36.085316	45.000000	-45.000000	-2777.159485	437.184330	20.359353	-57.974669	736.616746	80.368966	-1.438809	-13.830069	
8.4200	36.111698	17.868689	20.822089	-255.281991	826.166306	9.234234	11.711358	36.984435	35.664766	45.000000	-41.282405	2069.727435	-2271.332465	146.695565	-124.923617	2180.976395	103.828301	11.437698	3.036494	8.900649	-45.000000	-36.137299	45.000000	-45.000000	-2777.195777	437.198924	20.417272	-57.768713	736.671276	80.671429	-1.470966	-13.819276	
8.4300	36.103887	17.927795	20.821194	-254.606881	826.322857	9.221029	11.650087	36.995619	35.674041	45.000000	-41.144769	2069.756199	-2271.300695	146.701169	-125.061039	2181.013358	104.128679	11.430082	3.004499	8.945945	-45.000000	-36.187745	45.000000	-45.000000	-2777.234289	437.209758	20.486083	-57.553097	736.725336	81.001525	-1.504032	-13.810326	
8.4400	36.094695	17.999041	20.831368	-253.868346	826.500900	9.208197	11.595437	37.018968	35.691854	45.000000	-41.007710	2069.776392	-2271.272597	146.706139	-125.199782	2181.056855	104.441647	11.425678	2.968163	8.987002	-45.000000	-36.233972	45.000000	-45.000000	-2777.278258	437.223251	20.556639	-57.320551	736.783974	81.359349	-1.539129	-13.799789	
8.4500	36.086342	18.080247	20.844788	-253.062222	826.698318	9.196280	11.536733	37.033170	35.713334	45.000000	-40.857713	2069.793601	-2271.244780	146.718688	-125.344467	2181.112260	104.762817	11.420942	2.927439	9.033513	-45.000000	-36.286970	45.000000	-45.000000	-2777.323440	437.231963	20.633143	-57.076830	736.857128	81.740590	-1.578518	-13.791555	
8.4600	36.078007	18.171512	20.865671	-252.184781	826.912505	9.185974	11.487267	37.057539	35.733917	45.000000	-40.703350	2069.803637	-2271.218592	146.720556	-125.486634	2181.170256	105.089893	11.420039	2.882764	9.074747	-45.000000	-36.341245	45.000000	-45.000000	-2777.376735	437.240338	20.708839	-56.817448	736.938093	82.145332	-1.620982	-13.784518	
8.4700	36.072754	18.269714	20.885889	-251.233475	827.140245	9.177935	11.443186	37.077900	35.753096	45.000000	-40.536417	2069.809347	-2271.195602	146.715945	-125.626064	2181.224960	105.420054	11.421008	2.836218	9.113726	-45.000000	-36.399055	45.000000	-45.000000	-2777.439745	437.244113	20.790073	-56.548755	737.024860	82.572608	-1.666085	-13.781181	
8.4800	36.081570	18.353465	20.899388	-250.206556	827.377690	9.172688	11.430706	37.107835	35.809437	45.000000	-40.373279	2069.780421	-2271.193185	146.683233	-125.751490	2181.277610	105.755444	11.426516	2.787574	9.132677	-45.000000	-36.426048	45.000000	-45.000000	-2777.520024	437.246057	20.877343	-56.272062	737.110559	83.031547	-1.711877	-13.780686	
8.4900	36.099495	18.430273	20.909394	-249.103200	827.620445	9.170419	11.440727	37.143055	35.888163	45.000000	-40.205803	2069.731029	-2271.203801	146.631934	-125.862817	2181.325996	106.096307	11.435578	2.737350	9.135269	-45.000000	-36.431874	45.000000	-44.999999	-2777.613202	437.247213	20.972802	-55.990875	737.195616	83.526369	-1.758215	-13.780827	
8.5000	36.128615	18.493441	20.917054	-247.922996	827.863610	9.171012	11.476464	37.186961	36.000036	45.000000	-40.035342	2069.658131	-2271.230276	146.559974	-125.957440	2181.371536	106.442805	11.449273	2.685095	9.117831	-45.000000	-36.411950	45.000000	-44.999999	-2777.718075	437.248638	21.072279	-55.707430	737.279301	84.062298	-1.804471	-13.780378	
8.5100	36.160204	18.561911	20.930037	-246.665781	828.101897	9.174052	11.522842	37.237634	36.121367	45.000000	-39.856309	2069.583279	-2271.260562	146.487629	-126.038424	2181.412580	106.791580	11.467060	2.630692	9.089199	-45.000000	-36.393157	45.000000	-44.999998	-2777.829612	437.251886	21.172690	-55.422413	737.369326	84.637672	-1.852245	-13.778356	
8.5200	36.194959	18.631903	20.952131	-245.330828	828.329670	9.179013	11.586690	37.298815	36.265528	45.000000	-39.673839	2069.500356	-2271.298266	146.415891	-126.106179	2181.453901	107.141460	11.488924	2.573292	9.045002	-45.000000	-36.370780	45.000000	-44.999996	-2777.948035	437.258612	21.268864	-55.134696	737.466254	85.255824	-1.901329	-13.775091	
8.5300	36.221400	18.728578	20.993523	-243.917024	828.541093	9.185344	11.646676	37.366474	36.396803	45.000000	-39.479844	2069.437297	-2271.327886	146.366891	-126.168700	2181.493755	107.487388	11.514311	2.512782	8.999352	-45.000000	-36.376049	45.000000	-44.999993	-2778.067273	437.269072	21.356774	-54.843195	737.577467	85.911007	-1.953474	-13.770517	
8.5400	36.239869	18.848879	21.053987	-242.422451	828.730241	9.192590	11.686508	37.433114	36.511898	45.000000	-39.273787	2069.396837	-2271.346985	146.337581	-126.232094	2181.532064	107.822561	11.545947	2.448976	8.968101	-45.000000	-36.404758	45.000000	-44.999988	-2778.185078	437.278961	21.441611	-54.549923	737.696312	86.592445	-2.007038	-13.766028	
8.5500	36.251019	18.994716	21.132024	-240.845007	828.891297	9.200520	11.705559	37.495403	36.605982	45.000000	-39.055937	2069.378170	-2271.357596	146.327018	-126.297729	2181.567634	108.138515	11.584139	2.382267	8.952646	-45.000000	-36.454858	45.000000	-44.999979	-2778.302663	437.285572	21.527200	-54.256661	737.821782	87.287169	-2.061872	-13.763206	
8.5600	36.256210	19.154865	21.231501	-239.182220	829.018727	9.209088	11.691950	37.545230	36.688607	45.000000	-38.821982	2069.376353	-2271.363029	146.331474	-126.371770	2181.605289	108.427591	11.629556	2.312406	8.962261	-45.000000	-36.505164	45.000000	-44.999962	-2778.416480	437.285066	21.620735	-53.966292	737.940277	87.981501	-2.114723	-13.762989	
